<svg width="614" height="256" viewBox="0 0 614 256" fill="none" xmlns="http://www.w3.org/2000/svg">
<g clip-path="url(#clip0_1_2)">
<path d="M470.094 0H143.906C64.429 0 0 26.8629 0 60V196C0 229.137 64.429 256 143.906 256H470.094C549.571 256 614 229.137 614 196V60C614 26.8629 549.571 0 470.094 0Z" fill="#5865F2"/>
<mask id="mask0_1_2" style="mask-type:luminance" maskUnits="userSpaceOnUse" x="58" y="51" width="200" height="155">
<path d="M258 51H58V205.93H258V51Z" fill="white"/>
</mask>
<g mask="url(#mask0_1_2)">
<path d="M227.308 64.7966C214.561 58.9476 200.892 54.6383 186.599 52.1701C186.339 52.1225 186.079 52.2415 185.945 52.4796C184.187 55.6064 182.239 59.6856 180.876 62.8918C165.503 60.5904 150.21 60.5904 135.153 62.8918C133.789 59.6143 131.771 55.6064 130.005 52.4796C129.871 52.2495 129.611 52.1305 129.35 52.1701C115.066 54.6304 101.396 58.9397 88.6411 64.7966C88.5307 64.8442 88.4361 64.9236 88.3732 65.0267C62.4449 103.763 55.3421 141.547 58.8265 178.863C58.8423 179.046 58.9447 179.22 59.0867 179.331C76.1934 191.894 92.7642 199.521 109.027 204.576C109.288 204.655 109.563 204.56 109.729 204.346C113.576 199.092 117.005 193.553 119.946 187.728C120.119 187.386 119.953 186.982 119.599 186.847C114.159 184.783 108.98 182.268 103.998 179.411C103.604 179.181 103.572 178.617 103.935 178.347C104.983 177.561 106.032 176.744 107.033 175.919C107.214 175.768 107.466 175.736 107.679 175.831C140.411 190.775 175.846 190.775 208.191 175.831C208.404 175.728 208.657 175.76 208.846 175.911C209.847 176.736 210.895 177.561 211.952 178.347C212.314 178.617 212.291 179.181 211.897 179.411C206.914 182.323 201.735 184.783 196.288 186.839C195.933 186.974 195.775 187.386 195.949 187.728C198.952 193.545 202.381 199.084 206.157 204.338C206.315 204.56 206.599 204.655 206.859 204.576C223.201 199.521 239.772 191.894 256.879 179.331C257.028 179.22 257.123 179.053 257.139 178.871C261.309 135.73 250.154 98.2554 227.568 65.0346C227.513 64.9236 227.419 64.8442 227.308 64.7966ZM124.834 156.142C114.979 156.142 106.859 147.095 106.859 135.984C106.859 124.873 114.822 115.826 124.834 115.826C134.924 115.826 142.965 124.953 142.807 135.984C142.807 147.095 134.845 156.142 124.834 156.142ZM191.29 156.142C181.435 156.142 173.316 147.095 173.316 135.984C173.316 124.873 181.278 115.826 191.29 115.826C201.38 115.826 209.421 124.953 209.264 135.984C209.264 147.095 201.38 156.142 191.29 156.142Z" fill="white"/>
</g>
<path d="M344.266 116.406L358.211 96.6016H375.73L354.461 127.715L376.492 160H358.914L344.324 139.258L329.852 160H312.215L334.246 127.715L313.035 96.6016H330.555L344.266 116.406ZM403.738 110.195H412.586C414.93 110.195 416.941 109.883 418.621 109.258C420.34 108.594 421.727 107.676 422.781 106.504C423.758 105.488 424.48 104.258 424.949 102.812C425.457 101.328 425.711 99.7266 425.711 98.0078C425.711 96.3281 425.457 94.8047 424.949 93.4375C424.48 92.0312 423.758 90.8203 422.781 89.8047C421.805 88.8281 420.555 88.0664 419.031 87.5195C417.547 86.9727 415.809 86.6992 413.816 86.6992C412.176 86.6992 410.633 86.9336 409.188 87.4023C407.781 87.8711 406.551 88.5352 405.496 89.3945C404.402 90.293 403.543 91.3672 402.918 92.6172C402.293 93.8672 401.98 95.2734 401.98 96.8359H385.691C385.691 93.3594 386.395 90.1953 387.801 87.3438C389.246 84.4922 391.219 82.0312 393.719 79.9609C396.219 77.9297 399.148 76.3477 402.508 75.2148C405.906 74.082 409.559 73.5156 413.465 73.5156C417.684 73.5156 421.551 74.043 425.066 75.0977C428.582 76.1133 431.59 77.6367 434.09 79.668C436.59 81.7383 438.523 84.2969 439.891 87.3438C441.297 90.3516 442 93.8477 442 97.832C442 99.668 441.727 101.484 441.18 103.281C440.633 105.039 439.832 106.719 438.777 108.32C437.723 109.922 436.414 111.406 434.852 112.773C433.289 114.102 431.492 115.254 429.461 116.23C431.844 117.09 433.895 118.184 435.613 119.512C437.371 120.84 438.816 122.344 439.949 124.023C441.082 125.742 441.922 127.617 442.469 129.648C443.016 131.68 443.289 133.828 443.289 136.094C443.289 140.078 442.527 143.633 441.004 146.758C439.48 149.883 437.391 152.5 434.734 154.609C432.078 156.758 428.914 158.398 425.242 159.531C421.609 160.625 417.684 161.172 413.465 161.172C409.832 161.172 406.277 160.684 402.801 159.707C399.363 158.691 396.297 157.168 393.602 155.137C390.906 153.145 388.738 150.625 387.098 147.578C385.496 144.531 384.695 140.938 384.695 136.797H400.984C400.984 138.438 401.297 139.961 401.922 141.367C402.547 142.734 403.445 143.906 404.617 144.883C405.75 145.898 407.098 146.699 408.66 147.285C410.223 147.832 411.941 148.105 413.816 148.105C415.926 148.105 417.82 147.812 419.5 147.227C421.18 146.641 422.586 145.781 423.719 144.648C424.812 143.633 425.633 142.383 426.18 140.898C426.766 139.414 427.059 137.754 427.059 135.918C427.059 133.613 426.727 131.641 426.062 130C425.398 128.359 424.441 127.012 423.191 125.957C421.902 124.902 420.359 124.121 418.562 123.613C416.805 123.105 414.812 122.852 412.586 122.852H403.738V110.195ZM499.012 160C498.621 159.219 498.289 158.32 498.016 157.305C497.742 156.289 497.508 155.215 497.312 154.082C496.414 155.059 495.379 155.977 494.207 156.836C493.035 157.695 491.746 158.438 490.34 159.062C488.895 159.727 487.312 160.234 485.594 160.586C483.875 160.977 482.02 161.172 480.027 161.172C476.785 161.172 473.797 160.703 471.062 159.766C468.367 158.828 466.043 157.52 464.09 155.84C462.137 154.16 460.613 152.168 459.52 149.863C458.426 147.52 457.879 144.98 457.879 142.246C457.879 138.73 458.562 135.625 459.93 132.93C461.297 130.195 463.348 127.949 466.082 126.191C468.543 124.59 471.57 123.379 475.164 122.559C478.797 121.699 482.957 121.27 487.645 121.27H496.727V117.52C496.727 116.035 496.492 114.707 496.023 113.535C495.555 112.324 494.852 111.289 493.914 110.43C492.938 109.531 491.707 108.848 490.223 108.379C488.777 107.871 487.078 107.617 485.125 107.617C483.406 107.617 481.922 107.832 480.672 108.262C479.422 108.652 478.406 109.219 477.625 109.961C476.922 110.625 476.395 111.426 476.043 112.363C475.73 113.301 475.574 114.336 475.574 115.469H459.285C459.285 112.773 459.871 110.215 461.043 107.793C462.254 105.371 464.012 103.242 466.316 101.406C468.582 99.5703 471.355 98.125 474.637 97.0703C477.957 95.9766 481.746 95.4297 486.004 95.4297C489.832 95.4297 493.387 95.8984 496.668 96.8359C499.988 97.7734 502.859 99.1602 505.281 100.996C507.703 102.832 509.598 105.156 510.965 107.969C512.332 110.742 513.016 113.965 513.016 117.637V144.824C513.016 148.223 513.23 151.035 513.66 153.262C514.09 155.488 514.715 157.402 515.535 159.004V160H499.012ZM483.484 148.574C485.125 148.574 486.648 148.379 488.055 147.988C489.461 147.598 490.73 147.09 491.863 146.465C492.996 145.84 493.973 145.137 494.793 144.355C495.613 143.535 496.258 142.715 496.727 141.895V130.996H488.406C485.867 130.996 483.699 131.25 481.902 131.758C480.105 132.227 478.641 132.891 477.508 133.75C476.375 134.648 475.535 135.723 474.988 136.973C474.441 138.184 474.168 139.512 474.168 140.957C474.168 142.09 474.363 143.145 474.754 144.121C475.184 145.059 475.789 145.859 476.57 146.523C477.352 147.148 478.309 147.656 479.441 148.047C480.613 148.398 481.961 148.574 483.484 148.574Z" fill="white"/>
</g>
<defs>
<clipPath id="clip0_1_2">
<rect width="614" height="256" fill="white"/>
</clipPath>
</defs>
</svg>
